<?xml version="1.0" standalone="no"?>
<!DOCTYPE svg PUBLIC "-//W3C//DTD SVG 20010904//EN"
 "http://www.w3.org/TR/2001/REC-SVG-20010904/DTD/svg10.dtd">
<svg version="1.0" xmlns="http://www.w3.org/2000/svg"
 width="500.000000pt" height="500.000000pt" viewBox="0 0 500.000000 500.000000"
 preserveAspectRatio="xMidYMid meet">
<metadata>
Created by potrace 1.14, written by Peter Selinger 2001-2017
</metadata>
<g transform="translate(0.000000,500.000000) scale(0.100000,-0.100000)"
fill="#000000" stroke="none">
<path d="M191 4989 c-82 -24 -152 -94 -177 -177 -22 -71 -21 -4556 1 -4628 19
-63 69 -122 131 -154 l49 -25 2305 0 2305 0 49 25 c60 31 113 94 132 156 22
72 21 4557 -1 4630 -19 63 -69 122 -131 154 l-49 25 -2290 2 c-1457 1 -2302
-2 -2324 -8z m3860 -345 c9 -96 4 -124 -20 -110 -7 5 -11 49 -11 119 0 139 17
134 31 -9z m414 35 c4 -5 -14 -32 -39 -59 -25 -27 -51 -61 -58 -75 -11 -25
-38 -35 -38 -15 0 34 91 160 115 160 8 0 17 -5 20 -11z m-684 -259 c48 -25 67
-48 46 -56 -32 -12 -198 110 -183 135 5 8 21 2 54 -24 26 -19 63 -44 83 -55z
m529 39 c86 -22 150 -90 158 -169 6 -68 -25 -130 -92 -181 -138 -107 -153
-125 -165 -208 l-7 -46 -87 1 c-94 1 -127 14 -94 38 39 29 8 91 -81 159 -244
188 31 492 368 406z m418 -140 c-3 -10 -38 -24 -190 -75 -12 -4 -18 -1 -18 9
0 13 59 48 120 70 29 10 92 7 88 -4z m-950 -121 c-5 -13 -20 -18 -131 -43 -77
-17 -101 -15 -80 6 31 31 220 64 211 37z m20 -218 c-7 -9 -32 -45 -56 -79 -23
-33 -47 -61 -52 -61 -19 0 -21 22 -4 48 30 46 106 122 116 116 5 -3 4 -13 -4
-24z m749 -48 c68 -44 85 -64 64 -76 -12 -8 -182 114 -175 125 8 14 27 6 111
-49z m-361 -116 c13 -10 16 -18 9 -25 -13 -13 -175 0 -176 14 -1 25 135 34
167 11z m-32 -62 c9 -8 16 -21 16 -27 0 -24 -31 -57 -54 -57 -26 0 -61 34 -51
49 3 6 -1 13 -9 16 -9 3 -23 7 -32 10 -33 10 0 25 56 25 40 0 64 -5 74 -16z
m-686 -309 c29 -9 52 -19 52 -22 0 -4 -5 -21 -12 -39 -16 -45 1 -64 57 -64 40
0 43 -2 49 -31 3 -17 6 -327 6 -688 0 -615 -2 -659 -19 -696 -23 -51 -65 -93
-116 -116 l-40 -19 202 0 203 0 -7 -32 c-13 -75 -76 -154 -139 -178 -16 -6
-481 -10 -1210 -10 -1156 0 -1186 0 -1223 20 -64 32 -121 114 -121 175 l0 25
203 0 c184 1 199 2 163 15 -47 17 -91 57 -119 110 -22 40 -22 46 -25 698 -1
361 1 672 6 690 9 31 10 32 59 29 39 -2 53 2 68 18 18 20 18 21 -4 60 -12 22
-21 40 -19 40 2 0 21 7 43 15 62 22 1868 22 1943 0z m-1468 -2464 c0 -5 -30
-30 -67 -55 -51 -35 -77 -46 -105 -46 -21 0 -38 3 -38 6 0 3 19 27 43 55 42
49 42 49 105 49 34 0 62 -4 62 -9z m950 -236 l0 -235 -60 0 -60 0 0 235 0 235
60 0 60 0 0 -235z m-2342 -32 c-3 -218 -5 -241 -23 -273 -27 -46 -76 -70 -142
-70 l-53 0 0 50 0 50 34 0 c58 0 61 9 64 257 l4 223 59 0 60 0 -3 -237z m910
216 c67 -33 96 -85 100 -178 3 -67 0 -82 -25 -131 -23 -46 -37 -60 -82 -82
-50 -25 -65 -28 -163 -28 l-108 0 0 220 0 220 117 0 c98 0 124 -3 161 -21z
m-595 -83 c58 -25 81 -59 85 -131 l4 -65 -106 0 c-64 0 -106 -4 -106 -10 0 -5
10 -20 21 -31 18 -18 29 -20 73 -16 28 3 61 8 74 12 21 7 22 4 22 -38 l0 -45
-51 -12 c-59 -14 -134 -8 -178 14 -86 45 -111 198 -44 277 48 56 135 75 206
45z m1022 -10 c39 -26 56 -61 62 -126 l6 -60 -107 0 c-87 0 -106 -3 -106 -15
0 -8 11 -22 25 -31 25 -16 81 -16 143 2 20 6 22 3 22 -34 0 -48 -11 -56 -82
-67 -77 -12 -134 2 -178 41 -88 80 -72 240 30 296 42 23 145 20 185 -6z m760
0 c39 -26 56 -61 62 -126 l6 -60 -107 0 c-87 0 -106 -3 -106 -15 0 -8 11 -22
25 -31 25 -16 81 -16 143 2 20 6 22 3 22 -34 0 -48 -11 -56 -82 -67 -77 -12
-134 2 -178 41 -88 80 -72 240 30 296 42 23 145 20 185 -6z m582 -2 c56 -42
68 -69 68 -154 0 -93 -16 -122 -85 -157 -56 -29 -104 -29 -160 0 -64 32 -84
65 -88 147 -5 86 20 139 82 170 52 27 143 24 183 -6z m403 11 c16 -9 37 -29
46 -47 22 -43 29 -138 14 -192 -24 -86 -105 -129 -172 -89 l-33 19 3 -88 3
-88 -60 0 -61 0 0 245 0 245 49 0 c41 0 51 -4 56 -20 6 -20 7 -20 37 5 34 29
75 32 118 10z m399 0 c54 -27 85 -146 62 -233 -25 -92 -105 -135 -174 -95
l-33 20 4 -89 4 -88 -66 0 -66 0 0 245 0 245 54 0 c47 0 54 -3 60 -22 5 -20 7
-21 18 -7 31 40 88 50 137 24z m389 -11 c38 -29 62 -81 62 -136 l0 -48 -105 0
c-63 0 -105 -4 -105 -10 0 -5 10 -20 21 -31 18 -18 29 -21 73 -16 28 4 61 9
74 13 22 6 23 4 20 -37 -3 -41 -5 -45 -43 -57 -51 -18 -145 -10 -187 15 -56
32 -78 76 -78 152 0 86 22 128 81 159 55 29 144 27 187 -4z m-2304 -36 c8 -29
21 -74 28 -100 6 -27 15 -48 18 -48 4 0 19 45 35 100 l27 100 64 0 c35 0 64
-1 64 -3 0 -1 -28 -76 -63 -167 l-63 -165 -63 0 -63 0 -38 100 c-21 55 -49
130 -63 168 l-26 67 64 0 64 0 15 -52z"/>
<path d="M4138 4430 c-110 -14 -186 -59 -223 -133 -46 -93 -31 -149 62 -231
59 -53 83 -95 83 -146 0 -30 1 -30 54 -30 l54 0 7 38 c12 65 51 119 133 180
91 69 122 110 122 165 0 110 -126 177 -292 157z m38 -235 c3 -14 4 -34 1 -45
-4 -15 0 -19 16 -17 34 3 36 -39 3 -54 -19 -9 -31 -28 -47 -78 -27 -82 -26
-81 -45 -74 -13 5 -14 16 -9 62 6 55 5 56 -25 73 -20 11 -30 25 -30 41 0 46
47 64 72 26 13 -20 13 -19 14 17 0 22 3 47 7 57 10 25 36 21 43 -8z"/>
<path d="M4070 4100 c0 -5 5 -10 10 -10 6 0 10 5 10 10 0 6 -4 10 -10 10 -5 0
-10 -4 -10 -10z"/>
<path d="M4133 4065 c-3 -9 -3 -18 -1 -21 3 -3 8 4 11 16 6 23 -1 27 -10 5z"/>
<path d="M1600 2615 l0 -615 895 0 895 0 0 615 0 615 -895 0 -895 0 0 -615z"/>
<path d="M2454 1870 c-64 -26 -84 -115 -38 -169 51 -60 147 -48 181 24 42 88
-50 183 -143 145z"/>
<path d="M1370 730 l0 -120 31 0 c20 0 40 10 60 29 26 27 29 36 29 96 0 57 -3
69 -25 90 -16 17 -35 25 -60 25 l-35 0 0 -120z"/>
<path d="M833 769 c-13 -5 -23 -15 -23 -24 0 -11 11 -15 45 -15 45 0 52 5 37
26 -11 17 -35 22 -59 13z"/>
<path d="M1819 761 c-31 -25 -22 -33 37 -29 l49 3 -22 23 c-28 27 -34 27 -64
3z"/>
<path d="M2579 761 c-31 -25 -22 -33 37 -29 l49 3 -22 23 c-28 27 -34 27 -64
3z"/>
<path d="M3154 745 c-31 -47 -6 -155 36 -155 38 0 63 102 38 150 -19 35 -53
38 -74 5z"/>
<path d="M3561 741 c-27 -50 -6 -141 33 -141 32 0 53 72 38 125 -10 38 -55 48
-71 16z"/>
<path d="M3956 744 c-10 -25 -7 -104 4 -125 12 -21 40 -25 58 -7 12 12 17 104
6 132 -8 21 -60 21 -68 0z"/>
<path d="M4348 758 l-23 -23 49 -3 c59 -4 68 4 37 29 -30 24 -36 24 -63 -3z"/>
</g>
</svg>
