<?xml version="1.0" standalone="no"?>
<!DOCTYPE svg PUBLIC "-//W3C//DTD SVG 20010904//EN"
 "http://www.w3.org/TR/2001/REC-SVG-20010904/DTD/svg10.dtd">
<svg version="1.0" xmlns="http://www.w3.org/2000/svg"
 width="500.000000pt" height="500.000000pt" viewBox="0 0 500.000000 500.000000"
 preserveAspectRatio="xMidYMid meet">
<metadata>
Created by potrace 1.14, written by Peter Selinger 2001-2017
</metadata>
<g transform="translate(0.000000,500.000000) scale(0.100000,-0.100000)"
fill="#000000" stroke="none">
<path d="M191 4989 c-82 -24 -152 -94 -177 -177 -22 -71 -21 -4556 1 -4628 19
-63 69 -122 131 -154 l49 -25 2305 0 2305 0 49 25 c60 31 113 94 132 156 22
72 21 4557 -1 4630 -19 63 -69 122 -131 154 l-49 25 -2290 2 c-1457 1 -2302
-2 -2324 -8z m3860 -345 c9 -96 4 -124 -20 -110 -7 5 -11 49 -11 119 0 139 17
134 31 -9z m414 35 c4 -5 -14 -32 -39 -59 -25 -27 -51 -61 -58 -75 -11 -25
-38 -35 -38 -15 0 34 91 160 115 160 8 0 17 -5 20 -11z m-684 -259 c48 -25 67
-48 46 -56 -32 -12 -198 110 -183 135 5 8 21 2 54 -24 26 -19 63 -44 83 -55z
m529 39 c86 -22 150 -90 158 -169 6 -68 -25 -130 -92 -181 -138 -107 -153
-125 -165 -208 l-7 -46 -87 1 c-94 1 -127 14 -94 38 39 29 8 91 -81 159 -244
188 31 492 368 406z m418 -140 c-3 -10 -38 -24 -190 -75 -12 -4 -18 -1 -18 9
0 13 59 48 120 70 29 10 92 7 88 -4z m-950 -121 c-5 -13 -20 -18 -131 -43 -77
-17 -101 -15 -80 6 31 31 220 64 211 37z m20 -218 c-7 -9 -32 -45 -56 -79 -23
-33 -47 -61 -52 -61 -19 0 -21 22 -4 48 30 46 106 122 116 116 5 -3 4 -13 -4
-24z m749 -48 c68 -44 85 -64 64 -76 -12 -8 -182 114 -175 125 8 14 27 6 111
-49z m-361 -116 c13 -10 16 -18 9 -25 -13 -13 -175 0 -176 14 -1 25 135 34
167 11z m-32 -62 c9 -8 16 -21 16 -27 0 -24 -31 -57 -54 -57 -26 0 -61 34 -51
49 3 6 -1 13 -9 16 -9 3 -23 7 -32 10 -33 10 0 25 56 25 40 0 64 -5 74 -16z
m-686 -309 c29 -9 52 -19 52 -22 0 -4 -5 -21 -12 -39 -16 -45 1 -64 57 -64 40
0 43 -2 49 -31 3 -17 6 -327 6 -688 0 -615 -2 -659 -19 -696 -23 -51 -65 -93
-116 -116 l-40 -19 202 0 203 0 -7 -32 c-13 -75 -76 -154 -139 -178 -16 -6
-481 -10 -1210 -10 -1156 0 -1186 0 -1223 20 -64 32 -121 114 -121 175 l0 25
203 0 c184 1 199 2 163 15 -47 17 -91 57 -119 110 -22 40 -22 46 -25 698 -1
361 1 672 6 690 9 31 10 32 59 29 39 -2 53 2 68 18 18 20 18 21 -4 60 -12 22
-21 40 -19 40 2 0 21 7 43 15 62 22 1868 22 1943 0z m-1958 -2575 l0 -80 65 0
65 0 0 80 0 80 65 0 65 0 0 -220 0 -220 -65 0 -65 0 0 90 0 90 -65 0 -65 0 0
-90 0 -90 -60 0 -60 0 0 220 0 220 60 0 60 0 0 -80z m610 30 l0 -50 -70 0 -70
0 0 -30 0 -30 65 0 65 0 0 -50 0 -50 -65 0 -65 0 0 -40 0 -40 70 0 70 0 0 -50
0 -50 -130 0 -130 0 0 220 0 220 130 0 130 0 0 -50z m200 -120 l0 -170 85 0
85 0 0 -50 0 -50 -145 0 -145 0 0 220 0 220 60 0 60 0 0 -170z m483 156 c48
-20 69 -50 75 -105 9 -103 -40 -162 -145 -176 l-53 -7 0 -69 0 -69 -60 0 -60
0 0 220 0 220 105 0 c67 0 118 -5 138 -14z m407 -36 l0 -50 -70 0 -70 0 0 -30
0 -30 65 0 65 0 0 -50 0 -50 -65 0 -65 0 0 -40 0 -40 70 0 70 0 0 -50 0 -50
-130 0 -130 0 0 220 0 220 130 0 130 0 0 -50z m338 30 c78 -35 92 -125 32
-194 -17 -19 -30 -37 -30 -40 0 -4 27 -47 60 -96 l61 -90 -70 0 -70 0 -47 80
c-25 44 -52 80 -60 80 -11 0 -14 -18 -14 -80 l0 -80 -60 0 -60 0 0 220 0 220
108 0 c84 0 116 -5 150 -20z m-1198 -579 c0 -9 -24 -21 -42 -21 -6 0 -6 6 2
15 14 16 40 20 40 6z m280 -61 c0 -63 -2 -70 -20 -70 -18 0 -20 7 -20 63 0 66
4 77 27 77 10 0 13 -18 13 -70z m-670 1 c0 -80 -13 -111 -45 -111 -27 0 -35
24 -10 34 11 4 15 22 15 71 0 58 2 65 20 65 18 0 20 -7 20 -59z m270 39 c43
-43 10 -110 -55 -110 l-35 0 0 65 0 65 35 0 c22 0 43 -8 55 -20z m-172 -22
c24 -24 14 -48 -20 -50 l-33 -1 33 -4 c44 -6 36 -27 -11 -31 -31 -3 -39 1 -49
22 -17 38 3 76 40 76 15 0 33 -5 40 -12z m290 0 c24 -24 14 -48 -20 -49 -31
-2 -31 -2 -5 -6 40 -6 35 -33 -6 -33 -52 0 -72 34 -47 81 12 22 59 26 78 7z
m59 -8 c3 -11 9 -20 13 -20 4 0 10 9 13 20 5 20 37 29 37 10 0 -5 -7 -28 -16
-50 -23 -56 -50 -52 -74 13 -18 46 -18 47 2 47 11 0 22 -8 25 -20z m161 8 c24
-24 14 -48 -20 -49 -31 -2 -31 -2 -5 -6 40 -6 35 -33 -6 -33 -52 0 -72 34 -47
81 12 22 59 26 78 7z m176 -21 c13 -36 -2 -61 -38 -65 -35 -4 -56 13 -56 47 0
36 19 53 55 49 22 -2 32 -10 39 -31z m111 -17 c0 -42 -2 -45 -27 -48 -22 -3
-28 -8 -28 -28 0 -19 -5 -25 -17 -22 -15 3 -19 16 -21 75 l-3 72 48 -2 48 -2
0 -45z m119 17 c12 -34 -1 -61 -32 -65 -12 -2 -22 -12 -24 -25 -2 -12 -10 -22
-18 -22 -12 0 -16 16 -18 72 l-3 72 43 -2 c37 -2 44 -6 52 -30z m104 21 c24
-24 14 -48 -20 -49 -31 -2 -31 -2 -5 -6 40 -6 35 -33 -6 -33 -52 0 -72 34 -47
81 12 22 59 26 78 7z"/>
<path d="M4138 4430 c-110 -14 -186 -59 -223 -133 -46 -93 -31 -149 62 -231
59 -53 83 -95 83 -146 0 -30 1 -30 54 -30 l54 0 7 38 c12 65 51 119 133 180
91 69 122 110 122 165 0 110 -126 177 -292 157z m38 -235 c3 -14 4 -34 1 -45
-4 -15 0 -19 16 -17 34 3 36 -39 3 -54 -19 -9 -31 -28 -47 -78 -27 -82 -26
-81 -45 -74 -13 5 -14 16 -9 62 6 55 5 56 -25 73 -20 11 -30 25 -30 41 0 46
47 64 72 26 13 -20 13 -19 14 17 0 22 3 47 7 57 10 25 36 21 43 -8z"/>
<path d="M4070 4100 c0 -5 5 -10 10 -10 6 0 10 5 10 10 0 6 -4 10 -10 10 -5 0
-10 -4 -10 -10z"/>
<path d="M4133 4065 c-3 -9 -3 -18 -1 -21 3 -3 8 4 11 16 6 23 -1 27 -10 5z"/>
<path d="M1600 2615 l0 -615 895 0 895 0 0 615 0 615 -895 0 -895 0 0 -615z"/>
<path d="M2454 1870 c-64 -26 -84 -115 -38 -169 51 -60 147 -48 181 24 42 88
-50 183 -143 145z"/>
<path d="M2680 806 c0 -44 1 -46 30 -46 23 0 33 6 42 26 16 34 0 58 -41 62
-31 3 -31 3 -31 -42z"/>
<path d="M3410 809 l0 -51 32 6 c72 14 62 96 -11 96 -19 0 -21 -6 -21 -51z"/>
<path d="M2180 285 c0 -25 4 -35 13 -33 18 7 20 43 2 58 -13 11 -15 8 -15 -25z"/>
<path d="M2690 270 c0 -11 5 -20 10 -20 6 0 10 9 10 20 0 11 -4 20 -10 20 -5
0 -10 -9 -10 -20z"/>
<path d="M2804 279 c-3 -6 -1 -16 5 -22 8 -8 11 -5 11 11 0 24 -5 28 -16 11z"/>
<path d="M2920 270 c0 -11 5 -20 10 -20 6 0 10 9 10 20 0 11 -4 20 -10 20 -5
0 -10 -9 -10 -20z"/>
</g>
</svg>
